<?xml version="1.0" standalone="no"?>
<!DOCTYPE svg PUBLIC "-//W3C//DTD SVG 20010904//EN"
 "http://www.w3.org/TR/2001/REC-SVG-20010904/DTD/svg10.dtd">
<svg version="1.0" xmlns="http://www.w3.org/2000/svg"
 width="500.000000pt" height="500.000000pt" viewBox="0 0 500.000000 500.000000"
 preserveAspectRatio="xMidYMid meet">

<g transform="translate(0.000000,500.000000) scale(0.100000,-0.100000)"
fill="#000000" stroke="none">
<path d="M2405 3840 c-38 -4 -88 -13 -111 -19 -23 -6 -61 -8 -86 -5 -62 9
-176 -11 -267 -46 -155 -60 -254 -156 -292 -283 -19 -62 -29 -78 -75 -120 -74
-66 -98 -120 -92 -205 5 -72 25 -120 66 -164 27 -30 24 -35 -10 -17 -15 8 -31
7 -65 -6 -60 -23 -93 -74 -100 -153 l-6 -60 50 -26 c27 -13 71 -41 98 -61 70
-54 107 -75 133 -75 16 0 27 -10 39 -35 16 -35 16 -35 -10 -63 -48 -50 -27
-96 64 -142 24 -12 71 -48 104 -79 80 -77 102 -90 186 -111 122 -32 283 -43
523 -37 228 5 349 20 467 57 61 18 71 26 155 117 74 80 100 117 138 197 54
111 80 182 91 244 5 32 14 46 40 62 92 57 174 193 182 303 3 52 0 69 -19 101
-13 22 -35 48 -50 59 -36 27 -105 27 -151 -1 l-36 -20 -34 73 c-120 251 -342
434 -607 498 -81 20 -233 28 -325 17z m-139 -78 c53 -18 154 -88 154 -106 0
-5 -15 -22 -32 -37 l-33 -27 55 19 c152 51 293 -11 308 -136 12 -114 -72 -178
-213 -160 l-54 6 25 36 c25 37 44 94 43 128 0 13 -7 5 -21 -23 -34 -70 -102
-138 -176 -174 -58 -29 -76 -33 -147 -33 -44 0 -89 4 -100 8 -12 6 -7 -4 14
-24 l35 -32 -52 6 c-60 7 -131 36 -161 66 -26 26 -27 16 -1 -27 11 -18 36 -42
55 -53 29 -17 33 -24 25 -39 -22 -40 -133 -38 -207 5 -24 13 -43 20 -43 15 0
-10 80 -80 92 -80 21 0 4 -37 -37 -78 -45 -44 -45 -44 -105 -40 -72 5 -106 27
-138 89 -34 64 -28 168 11 228 36 54 124 98 217 108 50 5 59 8 40 14 -14 4
-49 7 -77 8 -65 1 -67 11 -22 100 57 115 161 194 301 231 92 24 178 24 244 2z
m883 -250 c53 -53 95 -222 77 -314 -5 -29 -14 -39 -47 -53 -57 -26 -76 -58
-89 -154 -14 -100 -42 -180 -73 -209 l-23 -22 -24 25 -23 24 26 58 c14 32 29
88 33 125 6 62 5 68 -19 91 -13 14 -42 29 -63 33 -55 9 -61 17 -68 87 -4 34
-20 102 -37 150 -38 115 -38 124 8 144 58 24 151 41 226 42 62 1 71 -2 96 -27z
m409 -282 c16 -16 33 -45 36 -65 22 -114 -86 -296 -202 -342 -157 -61 -201
-100 -223 -199 -12 -54 -13 -55 -43 -48 -43 9 -46 12 -46 40 0 30 21 73 65
134 49 68 66 107 75 173 10 68 52 161 106 231 81 107 172 137 232 76z m-907
-28 c64 -84 100 -158 123 -254 l6 -26 -61 18 c-33 10 -89 22 -125 25 -46 5
-64 11 -64 22 0 8 -13 28 -29 44 -49 49 -118 33 -146 -34 -11 -28 -21 -32 -91
-49 -151 -36 -279 -116 -349 -221 l-34 -50 -6 39 c-3 22 -19 83 -36 136 l-30
98 41 36 c22 20 48 50 57 65 10 16 25 29 34 29 19 0 63 18 99 41 14 9 52 22
85 29 33 6 97 29 143 50 80 38 85 39 165 34 45 -3 100 -1 122 4 59 15 57 15
96 -36z m-170 -193 c13 -13 19 -29 17 -44 -4 -21 -1 -23 61 -28 192 -17 343
-97 430 -227 50 -75 101 -227 81 -240 -25 -15 -215 -50 -340 -61 -128 -12
-330 -7 -510 12 -113 11 -352 57 -363 68 -13 13 10 88 50 163 67 129 219 236
378 268 33 6 71 14 84 16 18 4 22 10 18 26 -4 13 2 28 18 44 30 30 49 30 76 3z
m-862 -103 c23 -15 59 -42 81 -62 33 -30 41 -45 57 -116 14 -65 22 -82 40 -89
34 -13 31 -56 -3 -69 -23 -9 -31 -6 -60 24 -23 24 -46 36 -76 41 -28 5 -66 24
-108 55 -36 26 -84 57 -107 70 -32 17 -43 30 -43 47 0 13 5 23 10 23 17 0 91
-40 144 -77 27 -19 52 -31 57 -26 11 11 -43 54 -128 99 -37 21 -70 39 -71 40
-9 7 11 44 24 44 19 0 131 -57 170 -86 33 -25 54 -31 54 -14 0 11 -132 100
-147 100 -5 0 -18 6 -29 14 -18 14 -18 15 6 24 28 11 62 0 129 -42z m195 -405
l-6 -39 109 -26 c221 -53 562 -82 778 -67 139 10 293 37 370 64 39 14 40 15
38 61 -1 50 1 52 44 35 72 -27 94 -83 46 -117 -96 -67 -301 -102 -635 -109
-415 -9 -738 38 -825 119 -39 36 -27 65 42 101 43 23 46 21 39 -22z m1089
-298 c-103 -21 -371 -36 -521 -29 -150 7 -288 22 -321 34 -11 4 187 7 440 7
380 0 450 -2 402 -12z"/>
<path d="M3094 3479 c-3 -5 0 -33 6 -61 7 -28 15 -85 19 -127 5 -64 9 -76 25
-79 18 -4 18 2 13 95 -3 54 -11 115 -18 135 -12 38 -33 55 -45 37z"/>
<path d="M3016 3472 c-3 -5 1 -30 9 -56 8 -27 17 -78 20 -115 9 -93 13 -111
30 -111 37 0 1 281 -37 288 -9 2 -19 -1 -22 -6z"/>
<path d="M2938 3465 c-3 -3 3 -39 13 -80 9 -41 21 -104 24 -140 6 -54 11 -65
24 -63 13 3 16 16 13 79 -4 127 -43 235 -74 204z"/>
<path d="M2860 3431 c0 -10 7 -37 15 -60 8 -24 19 -76 24 -118 10 -81 13 -88
34 -80 23 9 4 156 -32 250 -12 31 -41 37 -41 8z"/>
<path d="M1625 2081 c-57 -24 -85 -93 -85 -211 l0 -90 -55 0 -54 0 -3 97 c-3
96 -3 98 -30 107 -41 14 -131 -9 -168 -44 -27 -25 -31 -35 -28 -72 3 -36 7
-44 31 -52 36 -13 61 2 65 38 3 26 2 27 -32 20 -34 -6 -36 -5 -36 20 0 29 48
66 88 66 21 0 22 -3 22 -90 0 -89 0 -90 -25 -90 -16 0 -25 -6 -25 -15 0 -9 9
-15 25 -15 l25 0 0 -100 c0 -132 -18 -170 -83 -170 -11 0 -31 10 -44 21 -20
20 -23 20 -29 5 -26 -69 157 -58 221 14 17 18 21 39 23 126 l4 104 54 0 54 0
0 -95 c0 -90 1 -95 25 -111 22 -14 32 -15 65 -5 44 13 63 32 28 28 -22 -2 -23
1 -26 91 l-3 92 31 0 c20 0 30 5 30 15 0 10 -10 15 -31 15 l-31 0 4 123 c4
130 15 167 49 167 12 0 29 -10 40 -22 16 -20 20 -21 29 -8 24 35 -67 64 -125
41z"/>
<path d="M3825 1996 c-35 -15 -69 -73 -110 -189 l-28 -78 -37 91 c-63 152
-108 189 -194 160 -46 -15 -55 -30 -18 -30 16 0 36 -8 45 -18 24 -26 80 -152
118 -263 31 -89 32 -98 19 -130 -8 -18 -30 -51 -48 -71 -40 -45 -93 -53 -112
-18 -10 18 -8 20 19 20 16 0 42 5 58 12 l28 12 -27 4 c-32 4 -66 49 -118 152
-18 36 -43 80 -57 98 -13 17 -19 32 -13 32 6 0 22 12 35 26 19 20 25 38 25 71
0 83 -72 120 -213 109 -87 -6 -159 -33 -177 -65 -6 -12 -10 -38 -8 -59 2 -30
8 -38 31 -46 36 -13 61 2 65 38 3 26 2 27 -32 20 -33 -6 -36 -4 -36 19 0 13 6
30 14 36 20 17 71 30 84 22 8 -5 12 -71 14 -196 l3 -190 40 0 40 0 6 195 c3
107 6 196 7 198 1 1 13 2 28 2 19 0 28 -8 40 -36 24 -57 -2 -144 -43 -144 -7
0 -13 -3 -13 -6 0 -20 136 -267 155 -282 18 -15 21 -22 13 -37 -15 -27 15 -45
74 -45 95 0 151 81 228 330 68 216 98 263 141 224 17 -15 19 -15 25 0 7 18
-12 46 -30 46 -6 -1 -25 -7 -41 -14z"/>
<path d="M2601 1987 c-51 -26 -64 -58 -70 -177 l-6 -110 -64 134 c-58 125 -66
136 -98 147 -90 29 -203 -31 -203 -108 0 -51 70 -85 100 -48 21 25 8 50 -25
48 -35 -3 -47 12 -33 42 18 40 90 60 102 29 10 -25 7 -227 -4 -285 -11 -59
-22 -73 -62 -83 -20 -5 -33 -1 -48 14 -22 22 -40 26 -40 10 0 -5 -4 -10 -10
-10 -6 0 -10 70 -10 190 0 190 0 190 -23 201 -17 8 -36 7 -65 0 -45 -13 -67
-32 -30 -28 l23 2 3 -170 c3 -187 0 -195 -60 -195 -48 0 -61 35 -59 152 1 56
4 112 7 125 11 44 -5 92 -36 108 -34 18 -52 18 -104 4 -55 -15 -96 -59 -96
-102 0 -57 57 -88 94 -51 28 28 13 54 -29 51 -39 -3 -44 25 -10 58 17 18 34
25 53 23 l27 -3 0 -160 c0 -168 5 -190 47 -219 26 -18 109 -21 139 -5 14 7 24
7 33 0 12 -10 39 -12 189 -13 79 0 107 55 107 214 l1 113 73 -150 c97 -198
151 -250 236 -228 39 10 54 33 17 26 -19 -4 -32 5 -60 38 l-37 43 0 148 c0
111 4 156 15 177 23 45 69 55 100 21 20 -22 35 -18 35 10 0 31 -72 42 -119 17z"/>
<path d="M2808 1980 c-113 -34 -174 -148 -148 -275 20 -97 79 -145 176 -145
l57 0 -6 -41 c-10 -76 -77 -112 -120 -65 -22 23 -26 24 -37 11 -37 -45 86 -68
163 -30 61 29 71 53 77 184 5 111 6 116 28 119 12 2 22 8 22 13 0 5 -40 9 -90
9 -53 0 -90 -4 -90 -10 0 -5 11 -10 25 -10 24 0 25 -2 25 -76 l0 -75 -42 3
c-35 2 -46 9 -64 36 -62 91 -21 307 61 328 37 9 52 -1 62 -43 7 -31 13 -38 33
-38 32 0 51 45 29 71 -31 37 -101 52 -161 34z"/>
<path d="M1216 1383 c-11 -11 -6 -23 9 -23 8 0 15 4 15 9 0 13 -16 22 -24 14z"/>
<path d="M1580 1353 c0 -29 -3 -34 -12 -25 -17 17 -54 15 -72 -4 -9 -8 -16
-31 -16 -49 0 -41 20 -55 78 -52 l42 1 0 83 c0 49 -4 83 -10 83 -5 0 -10 -17
-10 -37z m-6 -55 c15 -24 -3 -52 -37 -56 -33 -4 -53 28 -37 59 14 25 58 23 74
-3z"/>
<path d="M3810 1305 c0 -50 4 -85 10 -85 6 0 10 35 10 85 0 50 -4 85 -10 85
-6 0 -10 -35 -10 -85z"/>
<path d="M1060 1300 c0 -47 4 -80 10 -80 6 0 10 16 10 35 0 34 2 35 38 36 l37
2 -35 6 c-29 5 -36 11 -38 34 -3 25 -1 27 32 27 20 0 36 5 36 10 0 6 -20 10
-45 10 l-45 0 0 -80z"/>
<path d="M2996 1346 c-13 -13 -16 -21 -8 -24 7 -2 12 -17 12 -33 0 -41 17 -69
40 -69 26 0 26 16 0 23 -15 4 -20 14 -20 41 0 29 4 36 20 36 11 0 20 5 20 10
0 6 -9 10 -19 10 -11 0 -21 6 -23 13 -2 9 -9 7 -22 -7z"/>
<path d="M1223 1280 c0 -36 2 -50 4 -32 2 17 2 47 0 65 -2 17 -4 3 -4 -33z"/>
<path d="M1311 1280 c1 -63 1 -64 10 -22 10 53 16 62 39 62 24 0 33 -14 41
-65 l6 -40 2 51 c0 27 -4 55 -11 62 -15 15 -55 16 -64 1 -4 -8 -9 -7 -15 2 -5
9 -8 -11 -8 -51z"/>
<path d="M1740 1335 c0 -3 11 -28 25 -55 31 -61 31 -78 3 -90 -22 -8 -22 -9 4
-9 23 -1 29 6 46 52 11 28 25 64 31 80 7 17 7 27 1 27 -6 0 -15 -12 -20 -27
-26 -71 -26 -72 -49 -20 -11 26 -25 47 -31 47 -5 0 -10 -2 -10 -5z"/>
<path d="M1927 1322 c-24 -26 -22 -79 2 -92 32 -17 69 -12 85 12 21 30 20 54
-4 78 -25 25 -62 26 -83 2z m77 -24 c15 -24 -3 -52 -37 -56 -33 -4 -53 28 -37
59 14 25 58 23 74 -3z"/>
<path d="M2090 1291 c0 -58 12 -71 68 -68 l42 1 0 53 c0 63 -18 80 -22 22 -3
-45 -24 -67 -52 -56 -11 5 -16 19 -16 52 0 25 -4 45 -10 45 -5 0 -10 -22 -10
-49z"/>
<path d="M2270 1278 c0 -67 17 -79 22 -15 2 32 8 44 26 52 32 14 27 24 -13 22
l-35 -2 0 -57z"/>
<path d="M2480 1279 c0 -67 17 -81 22 -18 3 45 24 67 52 56 11 -5 16 -19 16
-52 0 -25 5 -45 10 -45 13 0 13 80 0 100 -5 9 -27 15 -55 16 l-45 2 0 -59z"/>
<path d="M2670 1320 c-50 -50 6 -120 74 -94 30 12 16 22 -23 17 -29 -4 -39 -1
-44 11 -5 13 2 16 43 16 42 0 50 3 50 18 0 25 -31 52 -58 52 -12 0 -31 -9 -42
-20z m78 -17 c2 -9 -9 -13 -38 -13 -37 0 -41 2 -30 16 15 17 61 15 68 -3z"/>
<path d="M2830 1335 c0 -3 7 -17 16 -31 16 -24 16 -27 -5 -55 -25 -34 -8 -40
19 -7 l18 23 20 -25 c11 -14 23 -22 26 -19 4 3 -3 18 -15 32 l-20 27 20 27
c12 14 19 29 15 32 -3 3 -15 -5 -26 -19 l-20 -25 -18 23 c-17 21 -30 28 -30
17z"/>
<path d="M3210 1278 c0 -70 18 -78 22 -10 3 43 5 47 28 47 23 0 25 -4 28 -47
4 -57 22 -65 22 -10 0 41 14 62 41 62 20 0 29 -20 29 -66 0 -19 5 -34 10 -34
18 0 11 86 -8 103 -21 19 -57 22 -67 7 -5 -8 -11 -8 -20 0 -7 5 -29 9 -49 8
l-36 -3 0 -57z"/>
<path d="M3477 1322 c-21 -23 -22 -66 -1 -86 19 -20 68 -21 84 -2 10 13 5 15
-31 13 -26 -1 -44 3 -46 11 -3 8 10 12 47 12 49 0 51 1 45 23 -14 46 -68 62
-98 29z m73 -17 c11 -13 7 -15 -29 -15 -38 0 -50 8 -34 23 12 12 50 7 63 -8z"/>
<path d="M3654 1326 c-24 -18 -13 -31 14 -15 21 13 52 7 52 -11 0 -5 -16 -10
-35 -10 -39 0 -60 -24 -43 -53 7 -14 20 -17 54 -15 l44 3 0 46 c0 25 -5 50
-12 57 -16 16 -50 15 -74 -2z m64 -68 c-5 -15 -33 -22 -54 -14 -24 9 -6 26 27
26 20 0 29 -4 27 -12z"/>
<path d="M3895 1241 c-3 -5 0 -13 6 -16 5 -4 8 -13 5 -21 -3 -8 -1 -14 4 -14
12 0 23 37 15 50 -8 13 -22 13 -30 1z"/>
<path d="M1842 1068 c-7 -7 -12 -16 -12 -21 0 -6 -8 -16 -17 -23 -17 -13 -17
-13 0 -14 14 0 17 -9 17 -50 0 -27 5 -50 10 -50 6 0 10 23 10 50 0 43 3 50 20
50 11 0 20 5 20 10 0 6 -9 10 -20 10 -11 0 -20 7 -20 15 0 8 9 15 20 15 11 0
20 5 20 10 0 14 -33 13 -48 -2z"/>
<path d="M1967 1073 c-4 -3 -7 -15 -7 -25 0 -10 -7 -18 -15 -18 -8 0 -15 -4
-15 -10 0 -5 7 -10 14 -10 11 0 16 -15 19 -52 l3 -53 2 53 c2 45 5 52 22 52
11 0 20 5 20 10 0 6 -9 10 -20 10 -28 0 -25 19 5 30 14 5 25 12 25 15 0 7 -45
6 -53 -2z"/>
<path d="M2507 1073 c-11 -11 -8 -163 3 -163 6 0 10 35 10 85 0 85 -1 91 -13
78z"/>
<path d="M3077 1073 c-11 -11 -8 -163 3 -163 6 0 10 35 10 85 0 85 -1 91 -13
78z"/>
<path d="M2376 1036 c-13 -13 -16 -21 -8 -24 7 -2 12 -17 12 -33 0 -41 17 -69
40 -69 26 0 26 16 0 23 -15 4 -20 14 -20 41 0 29 4 36 20 36 11 0 20 5 20 10
0 6 -9 10 -19 10 -11 0 -21 6 -23 13 -2 9 -9 7 -22 -7z"/>
<path d="M1656 1014 c-23 -22 -21 -81 3 -94 27 -14 54 -13 77 5 18 14 16 15
-21 9 -31 -4 -44 -2 -54 10 -12 14 -8 16 38 16 43 0 51 3 51 18 0 43 -63 67
-94 36z m72 -21 c2 -9 -8 -13 -32 -13 -34 0 -44 8 -29 24 11 11 56 2 61 -11z"/>
<path d="M2080 1010 c-39 -39 -14 -100 43 -100 33 0 57 24 57 59 0 55 -61 80
-100 41z m75 -40 c0 -32 -3 -35 -32 -38 -28 -3 -33 1 -39 23 -8 33 12 57 45
53 22 -3 26 -8 26 -38z"/>
<path d="M2251 970 l1 -65 10 49 c8 34 16 50 29 53 11 3 19 9 19 14 0 11 -11
11 -30 -1 -9 -6 -17 -5 -22 3 -4 7 -7 -17 -7 -53z"/>
<path d="M2613 1022 c-22 -14 -32 -57 -19 -83 14 -29 75 -39 95 -15 11 13 7
15 -30 13 -26 -1 -44 3 -46 11 -3 8 9 12 41 12 38 0 46 3 46 18 0 37 -54 65
-87 44z m65 -29 c2 -9 -8 -13 -32 -13 -34 0 -44 8 -29 24 11 11 56 2 61 -11z"/>
<path d="M2770 1015 c-18 -22 -5 -43 31 -53 18 -4 34 -13 36 -19 7 -19 -29
-24 -53 -8 -25 16 -33 8 -12 -13 19 -19 66 -15 77 7 12 22 2 34 -42 50 -15 6
-27 15 -27 21 0 14 43 13 58 -2 7 -7 12 -8 12 -2 0 32 -58 46 -80 19z"/>
<path d="M2927 1023 c-18 -17 -5 -45 28 -59 19 -8 35 -18 35 -23 0 -17 -28
-20 -48 -5 -11 8 -23 10 -26 5 -10 -16 22 -32 56 -29 28 2 33 7 33 28 0 20 -7
27 -35 36 -19 7 -34 16 -33 20 3 15 33 17 49 3 19 -16 30 -4 14 16 -13 15 -61
21 -73 8z"/>
<path d="M3150 1025 c0 -2 12 -30 28 -61 l27 -56 -24 -19 c-29 -24 -20 -37 11
-17 14 9 32 42 47 82 25 73 21 105 -6 38 -9 -23 -19 -42 -23 -42 -4 0 -15 18
-25 40 -10 22 -22 40 -27 40 -4 0 -8 -2 -8 -5z"/>
<path d="M3317 934 c-8 -8 1 -24 14 -24 5 0 9 7 9 15 0 15 -12 20 -23 9z"/>
</g>
</svg>
